<svg width="640" height="200" viewBox="0 0 640 200" xmlns="http://www.w3.org/2000/svg" role="img" aria-label="Polis">
  <title>Polis</title>

  <g transform="translate(20,20) scale(0.625)">
    <g stroke="#CBD5E1" stroke-width="3" stroke-dasharray="2 8" stroke-linecap="round" fill="none">
      <line x1="72" y1="72" x2="184" y2="72" />
      <line x1="184" y1="72" x2="184" y2="184" />
      <line x1="184" y1="184" x2="72" y2="184" />
      <line x1="72" y1="184" x2="72" y2="72" />
    </g>
    <g stroke="#94A3B8" stroke-width="6" stroke-linecap="round">
      <line x1="128" y1="128" x2="72" y2="72" />
      <line x1="128" y1="128" x2="184" y2="72" />
      <line x1="128" y1="128" x2="72" y2="184" />
      <line x1="128" y1="128" x2="184" y2="184" />
    </g>
    <rect x="52" y="52" width="40" height="40" rx="10" fill="#12B886" />
    <rect x="164" y="52" width="40" height="40" rx="10" fill="#12B886" />
    <rect x="52" y="164" width="40" height="40" rx="10" fill="#12B886" />
    <rect x="164" y="164" width="40" height="40" rx="10" fill="#12B886" />
    <rect x="96" y="96" width="64" height="64" rx="14" fill="#3B5BDB" />
  </g>

  <text x="215" y="128" font-family="Arial, Helvetica, sans-serif" font-size="72" font-weight="700" letter-spacing="2" fill="#3B5BDB">POLIS</text>
</svg>
